<svg width="14" height="16" viewBox="0 0 14 16" fill="none" xmlns="http://www.w3.org/2000/svg">
<g id="Iconly/Light-Outline/Arrow---Right">
<g id="Arrow---Right">
<path id="Combined-Shape" d="M6.9999 16C6.60756 16 6.28332 15.7264 6.23201 15.3714L6.22493 15.2727L6.22555 2.48824L1.32413 7.1069C1.02214 7.39153 0.531457 7.39252 0.228163 7.10911C-0.0475582 6.85147 -0.0734982 6.44748 0.150955 6.16232L0.225803 6.08059L6.45032 0.213929C6.49013 0.17641 6.53321 0.143822 6.57871 0.116165C6.5924 0.108353 6.60641 0.100401 6.6207 0.0928625C6.63295 0.0859283 6.64567 0.0796617 6.65853 0.0737508C6.67725 0.0655406 6.69658 0.0575183 6.7163 0.0502351C6.73151 0.0443176 6.74631 0.0393766 6.76122 0.0348695C6.77971 0.0295108 6.79941 0.0243047 6.81941 0.0198272C6.83338 0.0164979 6.84682 0.013861 6.86031 0.0115617C6.88039 0.00832684 6.90117 0.00557454 6.92219 0.00360997C6.93823 0.00191433 6.95412 0.000892947 6.97002 0.000329325C6.97966 0.000183412 6.98976 3.06427e-07 6.9999 3.05984e-07L7.02992 0.000364608C7.04513 0.000921553 7.06032 0.00189621 7.07548 0.00329048L6.9999 3.05984e-07C7.0488 3.03847e-07 7.09665 0.00425083 7.14304 0.0123809C7.15412 0.0142663 7.16549 0.0165122 7.17682 0.0190004C7.20015 0.0241664 7.22261 0.0301364 7.24464 0.0370114C7.25558 0.0403855 7.26727 0.0443156 7.27888 0.0485175C7.30219 0.0570157 7.32442 0.066254 7.34608 0.0764163C7.35626 0.081137 7.36692 0.0864242 7.37747 0.0919612C7.39468 0.10105 7.41104 0.110413 7.42698 0.120313C7.43827 0.127299 7.45001 0.135033 7.46157 0.143111L7.4705 0.149405C7.49778 0.168998 7.52363 0.190254 7.54788 0.213013L7.5486 0.213886L13.7742 6.08055C14.0762 6.36516 14.0752 6.82564 13.7719 7.10907C13.4962 7.36673 13.0656 7.38937 12.7627 7.17753L12.6759 7.10694L7.77548 2.49018L7.77486 15.2727C7.77486 15.6744 7.4279 16 6.9999 16Z" fill="#595B62"/>
</g>
</g>
</svg>
