<svg width="21" height="21" viewBox="0 0 21 21" fill="none" xmlns="http://www.w3.org/2000/svg">
<g id="Group">
<g id="Group_2">
<path id="Vector" d="M2.2798 0.277344H9.64865C10.115 0.277344 10.5629 0.463017 10.8929 0.793004L20.4846 10.3829C21.1718 11.0701 21.1718 12.1842 20.4846 12.8723L13.1157 20.2412C12.4285 20.9284 11.3144 20.9284 10.6272 20.2412L1.03553 10.6513C0.705542 10.3204 0.519869 9.8725 0.519869 9.40524V2.03728C0.519869 1.06491 1.30744 0.277344 2.2798 0.277344ZM5.35969 6.43711C6.0883 6.43711 6.67964 5.84577 6.67964 5.11716C6.67964 4.38855 6.0883 3.79721 5.35969 3.79721C4.63107 3.79721 4.03974 4.38855 4.03974 5.11716C4.03974 5.84577 4.63107 6.43711 5.35969 6.43711Z" fill="#595B62"/>
</g>
</g>
</svg>
